# xmcd
#
# Track frame offsets:
#	150
#	18684
#	34120
#	47801
#	58733
#	73048
#	86169
#	99772
#	115849
#	128259
#	151257
#	164356
#	180174
#	194757
#	210326
#	228168
#	244631
#	261131
#	277441
#	291220
#
# Disc length: 4115 seconds
#
# Revision: 1
# Processed by: cddbd v1.5.2PL0 Copyright (c) Steve Scherf et al.
# Submitted via: audiograbber 1.83.01
#
DISCID=17101114
DTITLE=Kamahl - Heart And Soul [Disc 2 ]
DYEAR=2012
DGENRE=Easy Listening
TTITLE0=The Impossible Dream
TTITLE1=What Would I Do Without My Music
TTITLE2=Nature Boy
TTITLE3=Sounds Of Goodbye
TTITLE4=And I Love You So
TTITLE5=All I Have To Offer You (Is Me)
TTITLE6=Unending Love
TTITLE7=Remember
TTITLE8=Sunrise Sunset
TTITLE9=To A Sleeping Beauty
TTITLE10=One Hundred Children
TTITLE11=The Elephant Song
TTITLE12=Are You Lonesome Tonight?
TTITLE13=Wind Beneath My Wings
TTITLE14=Danny Boy
TTITLE15=My Home
TTITLE16=What Is Australia To Me?
TTITLE17=Amazing Grace
TTITLE18=Ol' Man River
TTITLE19=My Way
EXTD=
EXTT0=
EXTT1=
EXTT2=
EXTT3=
EXTT4=
EXTT5=
EXTT6=
EXTT7=
EXTT8=
EXTT9=
EXTT10=
EXTT11=
EXTT12=
EXTT13=
EXTT14=
EXTT15=
EXTT16=
EXTT17=
EXTT18=
EXTT19=
PLAYORDER=
